<?xml version="1.0" standalone="no"?><!DOCTYPE svg PUBLIC "-//W3C//DTD SVG 1.1//EN" "http://www.w3.org/Graphics/SVG/1.1/DTD/svg11.dtd"><svg t="1726920247288" class="icon" viewBox="0 0 1024 1024" version="1.1" xmlns="http://www.w3.org/2000/svg" p-id="17284" xmlns:xlink="http://www.w3.org/1999/xlink" width="200" height="200"><path d="M422.4 64H108.8C84.1 64 64 84.1 64 108.8v313.6c0 24.7 20.1 44.8 44.8 44.8h313.6c24.7 0 44.8-20.1 44.8-44.8V108.8c0-24.7-20.1-44.8-44.8-44.8z m0 358.4H108.8V108.8h313.6v313.6zM422.4 556.8H108.8c-24.7 0-44.8 20.1-44.8 44.8v313.6c0 24.7 20.1 44.8 44.8 44.8h313.6c24.7 0 44.8-20.1 44.8-44.8V601.6c0-24.7-20.1-44.8-44.8-44.8z m0 358.4H108.8V601.6h313.6v313.6zM915.2 64H601.6c-24.7 0-44.8 20.1-44.8 44.8v313.6c0 24.7 20.1 44.8 44.8 44.8h313.6c24.7 0 44.8-20.1 44.8-44.8V108.8c0-24.7-20.1-44.8-44.8-44.8z m0 358.4H601.6V108.8h313.6v313.6zM601.6 736c-12.4 0-22.4 10-22.4 22.4v179.2c0 12.4 10 22.4 22.4 22.4 12.4 0 22.4-10 22.4-22.4V758.4c0-12.4-10-22.4-22.4-22.4zM713.6 736c-12.4 0-22.4 10-22.4 22.4v179.2c0 12.4 10 22.4 22.4 22.4 12.4 0 22.4-10 22.4-22.4V758.4c0-12.4-10-22.4-22.4-22.4zM825.6 646.4c-12.4 0-22.4 10-22.4 22.4v268.8c0 12.4 10 22.4 22.4 22.4 12.4 0 22.4-10 22.4-22.4V668.8c0-12.4-10-22.4-22.4-22.4zM937.6 601.6c-12.4 0-22.4 10-22.4 22.4v313.6c0 12.4 10 22.4 22.4 22.4 12.4 0 22.4-10 22.4-22.4V624c0-12.4-10-22.4-22.4-22.4z" fill="#333333" p-id="17285"></path></svg>