<?xml version="1.0" standalone="no"?><!DOCTYPE svg PUBLIC "-//W3C//DTD SVG 1.1//EN" "http://www.w3.org/Graphics/SVG/1.1/DTD/svg11.dtd"><svg t="1730019658807" class="icon" viewBox="0 0 1024 1024" version="1.1" xmlns="http://www.w3.org/2000/svg" p-id="6879" xmlns:xlink="http://www.w3.org/1999/xlink" width="200" height="200"><path d="M196.608 634.368l-68.096 226.304c-4.608 14.848 9.216 28.672 24.064 24.064l230.912-64.512 27.136-27.648-186.368-186.368-27.648 28.16zM255.70304 575.872l364.2112-364.20608 186.4448 186.4448-364.20608 364.2112zM890.368 313.856c43.008-43.008 43.008-68.608 0-111.616l-74.752-74.752c-43.008-43.008-68.608-43.008-111.104 0l-53.248 53.248 186.368 186.368 52.736-53.248zM245.76 454.656l21.504-21.504c2.56-2.56 2.56-6.656 0-9.728-2.56-2.56-2.56-6.656 0-9.728l72.704-72.704c8.704-8.704 8.704-22.528 0-31.232-8.704-8.704-22.528-8.704-31.232 0L236.032 382.976c-2.56 2.56-6.656 2.56-9.728 0L204.8 361.472c-2.56-2.56-2.56-6.656 0-9.728l41.984-41.984c8.704-8.704 8.704-22.528 0-31.232-8.704-8.704-22.528-8.704-31.232 0L174.08 321.024c-2.56 2.56-6.656 2.56-9.728 0l-36.864-36.864c-2.56-2.56-2.56-6.656 0-9.728L268.8 133.12c43.008-43.008 68.608-43.008 111.616 0l77.824 77.824c8.704 8.704 22.528 8.704 31.232 0 8.704-8.704 8.704-22.528 0-31.232l-87.04-87.04c-43.008-43.008-112.64-43.008-155.136 0L84.992 254.464c-13.312 13.312-13.312 35.328 0 48.64l6.656 6.656 144.384 144.384c2.56 3.072 7.168 3.072 9.728 0.512zM930.304 620.544l-91.648-91.648c-8.704-8.704-22.528-8.704-31.232 0-8.704 8.704-8.704 22.528 0 31.232l82.432 82.432c43.008 43.008 43.008 68.608 0 111.616l-145.92 146.432-46.592-46.592 61.952-61.952c8.704-8.704 8.704-22.528 0-31.232-8.704-8.704-22.528-8.704-31.232 0L665.6 822.784l-30.72-30.72 77.824-77.824c8.704-8.704 8.704-22.528 0-31.232-8.704-8.704-22.528-8.704-31.232 0L604.16 760.32c-7.68-7.68-20.48-7.68-28.16 0l-3.072 3.072c-7.68 7.68-7.68 20.48 0 28.16l150.016 150.016c11.264 11.264 29.696 11.264 40.96 0l10.24-10.24 155.136-155.136c43.52-43.008 43.52-112.64 1.024-155.648z" p-id="6880"></path></svg>