<?xml version="1.0" standalone="no"?><!DOCTYPE svg PUBLIC "-//W3C//DTD SVG 1.1//EN" "http://www.w3.org/Graphics/SVG/1.1/DTD/svg11.dtd"><svg t="1726920203427" class="icon" viewBox="0 0 1024 1024" version="1.1" xmlns="http://www.w3.org/2000/svg" p-id="14393" xmlns:xlink="http://www.w3.org/1999/xlink" width="200" height="200"><path d="M891.2 461l-76.5-36.5-53.8 25.7 107.6 51.3c12.1 5.8 12.1 15.2 0 21L534 682.1c-6 2.9-14 4.3-22 4.3s-15.9-1.4-22-4.3L155.6 522.5c-12.1-5.8-12.1-15.2 0-21l107.6-51.3-53.8-25.7-76.6 36.5C110.4 471.7 97 490.8 97 512s13.4 40.3 35.8 51l334.5 159.6c16.3 7.8 33.3 9.4 44.7 9.4 11.4 0 28.4-1.6 44.7-9.4L891.2 563c22.4-10.7 35.8-29.8 35.8-51s-13.4-40.3-35.8-51z" p-id="14394"></path><path d="M512 142.6c8 0 15.9 1.4 22 4.3l334.5 159.6c12.1 5.8 12.1 15.2 0 21L534 487.1c-6 2.9-14 4.3-22 4.3s-15.9-1.4-22-4.3L155.6 327.5c-12.1-5.8-12.1-15.2 0-21L490 146.9c6.1-2.8 14-4.3 22-4.3m0-45.6c-11.4 0-28.4 1.6-44.7 9.4L132.8 266C110.4 276.7 97 295.8 97 317s13.4 40.3 35.8 51l334.5 159.6c16.3 7.8 33.3 9.4 44.7 9.4 11.4 0 28.4-1.6 44.7-9.4L891.2 368c22.4-10.7 35.8-29.8 35.8-51s-13.4-40.3-35.8-51L556.7 106.4C540.4 98.6 523.4 97 512 97zM891.2 656l-76.5-36.5-53.8 25.7 107.6 51.3c12.1 5.8 12.1 15.2 0 21L534 877.1c-6 2.9-14 4.3-22 4.3s-15.9-1.4-22-4.3L155.6 717.5c-12.1-5.8-12.1-15.2 0-21l107.6-51.3-53.8-25.7-76.6 36.5C110.4 666.7 97 685.8 97 707s13.4 40.3 35.8 51l334.5 159.6c16.3 7.8 33.3 9.4 44.7 9.4 11.4 0 28.4-1.6 44.7-9.4L891.2 758c22.4-10.7 35.8-29.8 35.8-51s-13.4-40.3-35.8-51z" p-id="14395"></path></svg>