<?xml version="1.0" standalone="no"?><!DOCTYPE svg PUBLIC "-//W3C//DTD SVG 1.1//EN" "http://www.w3.org/Graphics/SVG/1.1/DTD/svg11.dtd"><svg t="1729825716905" class="icon" viewBox="0 0 1024 1024" version="1.1" xmlns="http://www.w3.org/2000/svg" p-id="32884" xmlns:xlink="http://www.w3.org/1999/xlink" width="200" height="200"><path d="M977.6128 566.272c-30.583467 54.0672-128.6144 90.112-245.077333 102.1952v108.1344c0 18.0224-6.075733 36.0448-18.295467 54.0672C867.362133 818.653867 989.9008 734.549333 989.9008 656.384v-90.112c0-6.007467-6.144-12.014933-12.288 0zM665.2928 43.4176c-177.698133 0-324.744533 54.135467-324.744533 120.2176v6.007467h67.3792c177.698133 0 324.744533 54.0672 324.744533 120.149333v54.135467C879.650133 331.912533 989.9008 283.8528 989.9008 223.778133v-60.142933c0-66.082133-147.0464-120.149333-324.676267-120.149333zM977.6128 337.92c-30.72 48.059733-128.682667 78.097067-245.077333 90.112V584.362667C879.650133 572.279467 989.9008 512.2048 989.9008 446.0544V337.92c0-6.007467-6.144-12.014933-12.288 0zM358.843733 217.770667C181.213867 217.770667 34.167467 271.7696 34.167467 337.92v54.0672c0 66.082133 147.0464 126.225067 324.676266 126.225067 177.698133 0 324.744533-54.135467 324.744534-126.225067V337.92c0-66.082133-140.9024-120.149333-324.744534-120.149333z m312.456534 294.434133C634.5728 566.272 505.890133 608.256 358.843733 608.256 211.8656 608.324267 83.182933 566.272 46.455467 512.2048 40.311467 500.189867 34.167467 506.197333 34.167467 512.2048v108.1344C34.167467 698.504533 181.213867 764.586667 358.843733 764.586667c177.698133 0 324.744533-66.082133 324.744534-144.247467V512.2048c0-6.007467 0-12.014933-12.288 0z m0 228.352c-36.727467 60.074667-165.410133 108.1344-312.456534 108.1344-146.978133 0-275.6608-42.052267-312.456533-108.1344-6.144-12.014933-12.219733-6.007467-12.219733 0v90.112c0 84.1728 147.0464 174.2848 324.676266 174.2848 177.698133 0 324.744533-90.112 324.744534-174.2848v-90.112c0-6.007467 0-12.014933-12.288 0z" fill="#A5D985" p-id="32885"></path></svg>