<?xml version="1.0" standalone="no"?><!DOCTYPE svg PUBLIC "-//W3C//DTD SVG 1.1//EN" "http://www.w3.org/Graphics/SVG/1.1/DTD/svg11.dtd"><svg t="1729823219092" class="icon" viewBox="0 0 1024 1024" version="1.1" xmlns="http://www.w3.org/2000/svg" p-id="11701" xmlns:xlink="http://www.w3.org/1999/xlink" width="200" height="200"><path d="M192 800h736l-96 128H96z" fill="#F0F0F0" p-id="11702"></path><path d="M928 768v32l-96 128H96v-32h736z" fill="#175EA2" p-id="11703"></path><path d="M928 736v32l-96 128H96v-32h736z" fill="#3678C1" p-id="11704"></path><path d="M928 704v32l-96 128H96v-32h736z" fill="#4F81DB" p-id="11705"></path><path d="M928 672v32l-96 128H96v-32h736z" fill="#5D8AE7" p-id="11706"></path><path d="M928 640v32l-96 128H96v-32h736z" fill="#669AE9" p-id="11707"></path><path d="M928 608v32l-96 128H96v-32h736z" fill="#7DB4ED" p-id="11708"></path><path d="M192 608h736l-96 128H96z" fill="#95CBF0" p-id="11709"></path><path d="M96 224h64v64H96V224z m160-128h64v64H256V96z m352 128h64v64h-64V224z m224 160h96v96h-96v-96zM192 448h32v32H192v-32z m304-122.816V480a16 16 0 1 1-32 0v-152.032l-36.896 35.552a16 16 0 0 1-22.208-23.04l77.92-75.104 72.704 75.52a16 16 0 1 1-23.04 22.208l-36.48-37.92z" fill="#30AD98" p-id="11710"></path><path d="M416 64h128v128h-128V64zM288 288h64v64H288V288z m0 192h64v64H288v-64z m288 0h64v64h-64v-64z m160-32h32v32h-32v-32z" fill="#27A2DF" p-id="11711"></path></svg>