<?xml version="1.0" standalone="no"?><!DOCTYPE svg PUBLIC "-//W3C//DTD SVG 1.1//EN" "http://www.w3.org/Graphics/SVG/1.1/DTD/svg11.dtd"><svg t="1729826635539" class="icon" viewBox="0 0 1024 1024" version="1.1" xmlns="http://www.w3.org/2000/svg" p-id="36411" xmlns:xlink="http://www.w3.org/1999/xlink" width="200" height="200"><path d="M690.642 542.305l-54.23 54.23-38.281-35.09-47.85-47.85 86.13-92.51c95.701 41.47 194.592 25.52 261.583-31.901 66.99-57.42 66.99-169.072 66.99-169.072l-51.04-19.14-102.081 102.081L665.12 156.312 767.202 54.23 744.872 0s-102.08 0-169.071 66.99C512 130.792 492.86 232.873 537.52 325.384l-92.512 89.321-127.6-124.411-6.381-86.131-121.221-79.75-31.9 35.09-35.09 35.09-31.901 31.9 76.56 121.221 82.941 6.38L381.21 478.505 43.065 807.078s-9.57 60.61 28.71 98.89c31.901 31.901 89.322 25.521 89.322 25.521L486.48 583.776l47.85 44.66 35.09 35.09-66.99 70.181C598.13 829.408 693.832 928.3 792.723 1024c98.89-25.52 156.311-95.7 188.212-188.212-95.701-102.08-191.402-197.782-290.293-293.483zM170.667 858.118c-15.95 15.95-41.47 15.95-57.42 0s-15.951-41.47 0-57.42 41.47-15.95 57.42 0c15.95 19.14 15.95 44.66 0 57.42z m628.436 89.321L578.99 727.327l31.9-31.9 226.492 226.492-38.28 25.52z m79.75-63.8L652.362 657.146l31.9-31.9 220.113 220.112-25.52 38.28z" fill="#1296DB" p-id="36412"></path></svg>