<?xml version="1.0" standalone="no"?><!DOCTYPE svg PUBLIC "-//W3C//DTD SVG 1.1//EN" "http://www.w3.org/Graphics/SVG/1.1/DTD/svg11.dtd"><svg t="1729826677198" class="icon" viewBox="0 0 1024 1024" version="1.1" xmlns="http://www.w3.org/2000/svg" p-id="39285" xmlns:xlink="http://www.w3.org/1999/xlink" width="200" height="200"><path d="M627.885559 210.47539l286.980339 573.978034A129.544678 129.544678 0 0 1 799.006373 971.932203H224.993627a129.544678 129.544678 0 0 1-115.859525-187.478779l286.980339-573.978034a129.562034 129.562034 0 0 1 231.771118 0z m-77.233898 37.896678a43.181559 43.181559 0 0 0-77.303322 0l-286.893559 574.793763a43.181559 43.181559 0 0 0 38.651661 62.481355h573.856542a43.181559 43.181559 0 0 0 38.651661-62.481355L550.608271 248.372068h0.04339zM512 367.381695a43.181559 43.181559 0 0 1 43.181559 43.181559v215.907797a43.181559 43.181559 0 1 1-86.363118 0v-215.907797A43.181559 43.181559 0 0 1 512 367.381695z m0 345.461152a43.181559 43.181559 0 1 1 0.008678 86.363119A43.181559 43.181559 0 0 1 512 712.842847z" fill="#00D1FF" opacity=".7" p-id="39286"></path></svg>