<?xml version="1.0" standalone="no"?><!DOCTYPE svg PUBLIC "-//W3C//DTD SVG 1.1//EN" "http://www.w3.org/Graphics/SVG/1.1/DTD/svg11.dtd"><svg t="1729824142658" class="icon" viewBox="0 0 1024 1024" version="1.1" xmlns="http://www.w3.org/2000/svg" p-id="19180" xmlns:xlink="http://www.w3.org/1999/xlink" width="200" height="200"><path d="M189.866667 719.872l-0.597334-478.72L1.962667 13.909333A8.533333 8.533333 0 0 1 8.533333 0h702.805334a8.533333 8.533333 0 0 1 6.570666 13.994667L530.602667 241.066667l0.938666 737.792a42.666667 42.666667 0 0 1-42.666666 42.666666 42.666667 42.666667 0 0 1-42.666667-42.666666v-213.333334l-0.938667-555.093333L548.522667 85.333333h-377.173334l103.253334 125.098667 0.682666 509.44a42.666667 42.666667 0 0 1-42.666666 42.666667 42.752 42.752 0 0 1-42.666667-42.666667z" fill="#5883FF" p-id="19181"></path><path d="M682.666667 256m42.666666 0l256 0q42.666667 0 42.666667 42.666667l0 0q0 42.666667-42.666667 42.666666l-256 0q-42.666667 0-42.666666-42.666666l0 0q0-42.666667 42.666666-42.666667Z" fill="#5883FF" p-id="19182"></path><path d="M682.666667 512m42.666666 0l256 0q42.666667 0 42.666667 42.666667l0 0q0 42.666667-42.666667 42.666666l-256 0q-42.666667 0-42.666666-42.666666l0 0q0-42.666667 42.666666-42.666667Z" fill="#5883FF" p-id="19183"></path><path d="M682.666667 768m42.666666 0l256 0q42.666667 0 42.666667 42.666667l0 0q0 42.666667-42.666667 42.666666l-256 0q-42.666667 0-42.666666-42.666666l0 0q0-42.666667 42.666666-42.666667Z" fill="#5883FF" p-id="19184"></path></svg>