<?xml version="1.0" standalone="no"?><!DOCTYPE svg PUBLIC "-//W3C//DTD SVG 1.1//EN" "http://www.w3.org/Graphics/SVG/1.1/DTD/svg11.dtd"><svg t="1729824030151" class="icon" viewBox="0 0 1024 1024" version="1.1" xmlns="http://www.w3.org/2000/svg" p-id="17148" xmlns:xlink="http://www.w3.org/1999/xlink" width="200" height="200"><path d="M49.152 8.192c20.992 0 39.424 15.36 43.008 36.352l0.512 7.168v877.568h881.664c20.992 0 39.424 15.36 43.008 36.352l0.512 7.168c0 20.992-15.36 39.424-36.352 43.008H5.632V51.2c0-23.552 19.456-43.008 43.52-43.008z" fill="#343399" p-id="17149"></path><path d="M932.864 695.808c-1.536 0-3.072 0-4.608-0.512-133.632-19.456-205.312-146.432-262.656-248.32-16.896-30.208-32.768-58.368-48.128-79.872-9.216-13.312-24.064-21.504-39.936-23.04-16.384-1.536-31.744 3.584-43.52 14.336-31.232 28.672-48.128 69.632-66.048 113.152-36.864 88.576-82.432 198.656-271.872 224.256-18.432 2.56-34.816-10.24-37.376-28.672-2.56-18.432 10.24-34.816 28.672-37.376 150.528-20.48 182.272-96.256 218.624-183.808 19.968-48.128 40.448-97.792 82.432-136.704 25.6-23.552 60.416-35.328 95.744-31.744 34.816 3.584 66.56 22.016 87.04 50.688 17.408 24.576 34.304 54.272 51.712 86.016 52.736 94.208 112.64 200.704 214.016 215.04 18.432 2.56 30.72 19.456 28.16 37.888-2.048 16.896-16.384 28.672-32.256 28.672z" fill="#F59D0D" p-id="17150"></path></svg>