<?xml version="1.0" standalone="no"?><!DOCTYPE svg PUBLIC "-//W3C//DTD SVG 1.1//EN" "http://www.w3.org/Graphics/SVG/1.1/DTD/svg11.dtd"><svg t="1725516107652" class="icon" viewBox="0 0 1024 1024" version="1.1" xmlns="http://www.w3.org/2000/svg" p-id="11448" xmlns:xlink="http://www.w3.org/1999/xlink" width="200" height="200"><path d="M702.89 735.93m-82.74 0a82.74 82.74 0 1 0 165.48 0 82.74 82.74 0 1 0-165.48 0Z" fill="#279ACC" p-id="11449"></path><path d="M702.88 825.58a89.66 89.66 0 1 1 89.66-89.66 89.76 89.76 0 0 1-89.66 89.66z m0-127.46a37.8 37.8 0 1 0 37.8 37.8 37.83 37.83 0 0 0-37.8-37.8zM616.45 620.33a25.93 25.93 0 0 1-13.57-48 190.9 190.9 0 0 1 55-22.81A25.94 25.94 0 0 1 670 599.91a138.67 138.67 0 0 0-40 16.6 25.77 25.77 0 0 1-13.55 3.82zM541.69 722.88a26 26 0 0 1-25.24-32 190.93 190.93 0 0 1 22.8-55A25.94 25.94 0 0 1 583.48 663a138.44 138.44 0 0 0-16.6 40 26 26 0 0 1-25.19 19.88zM561.38 848.3a26 26 0 0 1-22.15-12.39A190.86 190.86 0 0 1 516.46 781a25.94 25.94 0 0 1 50.43-12.15 138.23 138.23 0 0 0 16.58 40 25.94 25.94 0 0 1-22.09 39.47zM663.94 923.07a26 26 0 0 1-6.08-0.73 190.44 190.44 0 0 1-55-22.8A25.93 25.93 0 0 1 630 855.32a139 139 0 0 0 40 16.6 25.93 25.93 0 0 1-6 51.15zM741.82 923.07a25.94 25.94 0 0 1-6.05-51.15 139.21 139.21 0 0 0 40-16.59 25.93 25.93 0 1 1 27.08 44.22 190.47 190.47 0 0 1-55 22.79 26 26 0 0 1-6.03 0.73zM844.37 848.31a25.93 25.93 0 0 1-22.09-39.47 138.63 138.63 0 0 0 16.6-40A25.93 25.93 0 1 1 889.3 781a190.33 190.33 0 0 1-22.8 55 25.91 25.91 0 0 1-22.13 12.31zM864.07 722.89A26 26 0 0 1 838.88 703a138.85 138.85 0 0 0-16.6-40 25.93 25.93 0 0 1 44.22-27.1 190.5 190.5 0 0 1 22.8 55 26 26 0 0 1-25.23 32zM789.31 620.33a25.8 25.8 0 0 1-13.52-3.82 138.25 138.25 0 0 0-40-16.59 25.93 25.93 0 0 1 12.14-50.42 189.79 189.79 0 0 1 55 22.79 25.93 25.93 0 0 1-13.57 48z" fill="#303030" p-id="11450"></path><path d="M741.84 923a25.83 25.83 0 0 1-10.64-2.3 69.44 69.44 0 0 0-56.64 0 25.93 25.93 0 1 1-21.3-47.28 121.54 121.54 0 0 1 99.24 0A25.94 25.94 0 0 1 741.84 923z" fill="#303030" p-id="11451"></path><path d="M616.45 903.35a25.94 25.94 0 0 1-24.25-16.76 69.37 69.37 0 0 0-40-40 25.93 25.93 0 1 1 18.36-48.5 121.24 121.24 0 0 1 70.16 70.13 25.95 25.95 0 0 1-24.25 35.13z" fill="#303030" p-id="11452"></path><path d="M541.66 800.86a25.95 25.95 0 0 1-23.66-36.6 69.2 69.2 0 0 0 0-56.66 25.93 25.93 0 0 1 47.29-21.31 121.11 121.11 0 0 1 0 99.3 25.94 25.94 0 0 1-23.63 15.27z" fill="#303030" p-id="11453"></path><path d="M561.39 675.43a25.94 25.94 0 0 1-9.2-50.19 69.27 69.27 0 0 0 40-40 25.93 25.93 0 0 1 48.5 18.37 121.19 121.19 0 0 1-70.13 70.15 26 26 0 0 1-9.17 1.67z" fill="#303030" p-id="11454"></path><path d="M702.88 609a120 120 0 0 1-49.62-10.62 25.93 25.93 0 1 1 21.3-47.28 69.64 69.64 0 0 0 56.66 0 25.93 25.93 0 0 1 21.3 47.28A120 120 0 0 1 702.88 609z" fill="#303030" p-id="11455"></path><path d="M844.37 675.43a26 26 0 0 1-9.18-1.69 121.09 121.09 0 0 1-70.14-70.15 25.93 25.93 0 0 1 48.5-18.37 69.25 69.25 0 0 0 40 40 25.94 25.94 0 0 1-9.2 50.19z" fill="#303030" p-id="11456"></path><path d="M864.08 800.83a26 26 0 0 1-23.66-15.28 121.14 121.14 0 0 1 0-99.27 25.93 25.93 0 1 1 47.27 21.33 69.28 69.28 0 0 0 0 56.63 26 26 0 0 1-23.62 36.59z" fill="#303030" p-id="11457"></path><path d="M789.3 903.37a26 26 0 0 1-24.25-35.13 121.24 121.24 0 0 1 70.14-70.15 25.93 25.93 0 1 1 18.38 48.5 69.3 69.3 0 0 0-40 40 26 26 0 0 1-24.27 16.78zM435 814.25a25.71 25.71 0 0 1-12.4-3.17L216.87 698.8c-23.48-12.55-38.62-35.8-39.32-60.56a59.2 59.2 0 0 1 28.7-52.75l254-154.8a25.93 25.93 0 0 1 27 44.29l-254 154.8a7.16 7.16 0 0 0-3.86 7c0.13 4.63 3.38 11.71 12.13 16.38l205.88 112.4a25.93 25.93 0 0 1-12.4 48.69z" fill="#303030" p-id="11458"></path><path d="M409.17 626.82l-256.43-137.1c-29.75-15.9-34.87-52.86-9.47-68.36L397 266.43c12.94-7.9 30.68-7.77 45.84 0.34l256.47 137.09c29.74 15.91 34.86 52.86 9.47 68.36L455 627.15c-12.93 7.9-30.68 7.77-45.83-0.33z" fill="#279ACC" p-id="11459"></path><path d="M510.34 582.06A77.49 77.49 0 0 1 474 572.8L217.06 435.45c-23.67-12.66-38.81-35.9-39.51-60.67a59.17 59.17 0 0 1 28.71-52.73l254-154.8c20.83-12.7 48.27-12.83 71.62-0.36l256.9 137.34c23.68 12.67 38.82 35.92 39.51 60.68a59.15 59.15 0 0 1-28.71 52.73l-254 154.8a67.57 67.57 0 0 1-35.24 9.62z m-11.94-55c7 3.75 15.12 4.17 20.2 1.09l254-154.8a7.15 7.15 0 0 0 3.86-7c-0.12-4.63-3.38-11.71-12.13-16.38L507.44 212.63c-7-3.75-15.11-4.17-20.18-1.1l-254 154.8a7.17 7.17 0 0 0-3.86 7c0.13 4.64 3.38 11.72 12.13 16.39l256.88 137.34z" fill="#303030" p-id="11460"></path><path d="M445.69 679.13a25.93 25.93 0 0 1-12.2-3.06L217.06 560.35c-23.67-12.66-38.81-35.9-39.51-60.67A59.17 59.17 0 0 1 206.26 447l254-154.8c20.83-12.7 48.28-12.83 71.62-0.36l256.9 137.34a25.94 25.94 0 0 1-24.46 45.75l-256.88-137.4c-7-3.75-15.11-4.18-20.18-1.1l-254 154.8a7.16 7.16 0 0 0-3.86 7c0.13 4.64 3.38 11.72 12.13 16.39l216.4 115.7a25.93 25.93 0 0 1-12.24 48.81z" fill="#303030" p-id="11461"></path></svg>